<mxfile host="65bd71144e">
    <diagram id="-7X4kBdZIgbL-8Vb24gM" name="Page-1">
        <mxGraphModel dx="1336" dy="1652" grid="1" gridSize="10" guides="1" tooltips="1" connect="1" arrows="1" fold="1" page="1" pageScale="1" pageWidth="827" pageHeight="1169" math="0" shadow="0">
            <root>
                <mxCell id="0"/>
                <mxCell id="1" parent="0"/>
                <mxCell id="moevYXYjzL2wdo6MrvVT-7" style="edgeStyle=none;html=1;exitX=0;exitY=0.5;exitDx=0;exitDy=0;fontSize=14;startArrow=classic;startFill=1;endArrow=none;endFill=0;" parent="1" source="9EUJFgsQS7i97Vk9fihg-1" edge="1">
                    <mxGeometry relative="1" as="geometry">
                        <mxPoint y="160" as="targetPoint"/>
                    </mxGeometry>
                </mxCell>
                <mxCell id="moevYXYjzL2wdo6MrvVT-9" value="Данные&lt;br&gt;пользователя" style="edgeLabel;html=1;align=center;verticalAlign=middle;resizable=0;points=[];fontSize=14;" parent="moevYXYjzL2wdo6MrvVT-7" vertex="1" connectable="0">
                    <mxGeometry x="0.25" y="-3" relative="1" as="geometry">
                        <mxPoint x="15" y="23" as="offset"/>
                    </mxGeometry>
                </mxCell>
                <mxCell id="moevYXYjzL2wdo6MrvVT-8" style="edgeStyle=orthogonalEdgeStyle;html=1;exitX=1;exitY=0.5;exitDx=0;exitDy=0;entryX=-0.011;entryY=0.106;entryDx=0;entryDy=0;fontSize=14;entryPerimeter=0;rounded=0;" parent="1" source="9EUJFgsQS7i97Vk9fihg-1" target="moevYXYjzL2wdo6MrvVT-1" edge="1">
                    <mxGeometry relative="1" as="geometry"/>
                </mxCell>
                <mxCell id="PzxlP7XhQFu-x5lRBQ20-3" value="Сессия&lt;br&gt;пользователя" style="edgeLabel;html=1;align=center;verticalAlign=middle;resizable=0;points=[];fontSize=14;" parent="moevYXYjzL2wdo6MrvVT-8" vertex="1" connectable="0">
                    <mxGeometry x="-0.287" y="-1" relative="1" as="geometry">
                        <mxPoint x="51" y="18" as="offset"/>
                    </mxGeometry>
                </mxCell>
                <mxCell id="9EUJFgsQS7i97Vk9fihg-1" value="&lt;font style=&quot;font-size: 14px;&quot;&gt;Авторизация&lt;/font&gt;" style="rounded=0;whiteSpace=wrap;html=1;" parent="1" vertex="1">
                    <mxGeometry x="120" y="80" width="280" height="160" as="geometry"/>
                </mxCell>
                <mxCell id="9EUJFgsQS7i97Vk9fihg-2" value="&lt;font style=&quot;font-size: 14px;&quot;&gt;A1&lt;/font&gt;" style="rounded=0;whiteSpace=wrap;html=1;" parent="1" vertex="1">
                    <mxGeometry x="360" y="200" width="40" height="40" as="geometry"/>
                </mxCell>
                <mxCell id="3_sfm2uRKEZ2_lZH5iUf-11" style="edgeStyle=orthogonalEdgeStyle;rounded=0;html=1;exitX=1;exitY=0.5;exitDx=0;exitDy=0;entryX=0.5;entryY=0;entryDx=0;entryDy=0;fontSize=14;startArrow=none;startFill=0;endArrow=classic;endFill=1;" parent="1" source="moevYXYjzL2wdo6MrvVT-1" target="moevYXYjzL2wdo6MrvVT-3" edge="1">
                    <mxGeometry relative="1" as="geometry"/>
                </mxCell>
                <mxCell id="3_sfm2uRKEZ2_lZH5iUf-12" value="Решение о&lt;br&gt;перенаправлении на&lt;br&gt;определенный сервер" style="edgeLabel;html=1;align=center;verticalAlign=middle;resizable=0;points=[];fontSize=14;" parent="3_sfm2uRKEZ2_lZH5iUf-11" vertex="1" connectable="0">
                    <mxGeometry x="-0.1933" y="-2" relative="1" as="geometry">
                        <mxPoint x="-21" y="-32" as="offset"/>
                    </mxGeometry>
                </mxCell>
                <mxCell id="moevYXYjzL2wdo6MrvVT-1" value="&lt;font style=&quot;font-size: 14px;&quot;&gt;Координация запросов&lt;br&gt;&amp;nbsp;на ответственный сервис&lt;/font&gt;" style="rounded=0;whiteSpace=wrap;html=1;" parent="1" vertex="1">
                    <mxGeometry x="480" y="240" width="280" height="160" as="geometry"/>
                </mxCell>
                <mxCell id="moevYXYjzL2wdo6MrvVT-2" value="&lt;font style=&quot;font-size: 14px;&quot;&gt;A2&lt;/font&gt;" style="rounded=0;whiteSpace=wrap;html=1;" parent="1" vertex="1">
                    <mxGeometry x="720" y="360" width="40" height="40" as="geometry"/>
                </mxCell>
                <mxCell id="3_sfm2uRKEZ2_lZH5iUf-14" style="edgeStyle=orthogonalEdgeStyle;rounded=0;html=1;exitX=1;exitY=0.5;exitDx=0;exitDy=0;entryX=0;entryY=0.5;entryDx=0;entryDy=0;fontSize=14;startArrow=none;startFill=0;endArrow=classic;endFill=1;" parent="1" source="moevYXYjzL2wdo6MrvVT-3" target="moevYXYjzL2wdo6MrvVT-5" edge="1">
                    <mxGeometry relative="1" as="geometry"/>
                </mxCell>
                <mxCell id="3_sfm2uRKEZ2_lZH5iUf-15" value="Результат&lt;br&gt;выполнения&lt;br&gt;запроса" style="edgeLabel;html=1;align=center;verticalAlign=middle;resizable=0;points=[];fontSize=14;" parent="3_sfm2uRKEZ2_lZH5iUf-14" vertex="1" connectable="0">
                    <mxGeometry x="-0.3417" y="2" relative="1" as="geometry">
                        <mxPoint x="48" as="offset"/>
                    </mxGeometry>
                </mxCell>
                <mxCell id="moevYXYjzL2wdo6MrvVT-3" value="&lt;font style=&quot;font-size: 14px;&quot;&gt;Выполнение запроса&lt;br&gt;на ответственном сервисе&lt;/font&gt;" style="rounded=0;whiteSpace=wrap;html=1;" parent="1" vertex="1">
                    <mxGeometry x="840" y="400" width="280" height="160" as="geometry"/>
                </mxCell>
                <mxCell id="moevYXYjzL2wdo6MrvVT-4" value="&lt;font style=&quot;font-size: 14px;&quot;&gt;A3&lt;/font&gt;" style="rounded=0;whiteSpace=wrap;html=1;" parent="1" vertex="1">
                    <mxGeometry x="1080" y="520" width="40" height="40" as="geometry"/>
                </mxCell>
                <mxCell id="3_sfm2uRKEZ2_lZH5iUf-13" style="edgeStyle=orthogonalEdgeStyle;rounded=0;html=1;exitX=0.5;exitY=1;exitDx=0;exitDy=0;fontSize=14;startArrow=classic;startFill=1;endArrow=none;endFill=0;" parent="1" source="moevYXYjzL2wdo6MrvVT-5" edge="1">
                    <mxGeometry relative="1" as="geometry">
                        <mxPoint x="720" y="800" as="targetPoint"/>
                    </mxGeometry>
                </mxCell>
                <mxCell id="3_sfm2uRKEZ2_lZH5iUf-16" style="edgeStyle=orthogonalEdgeStyle;rounded=0;html=1;exitX=1;exitY=0.5;exitDx=0;exitDy=0;fontSize=14;startArrow=none;startFill=0;endArrow=classic;endFill=1;" parent="1" source="moevYXYjzL2wdo6MrvVT-5" edge="1">
                    <mxGeometry relative="1" as="geometry">
                        <mxPoint x="1640" y="640" as="targetPoint"/>
                    </mxGeometry>
                </mxCell>
                <mxCell id="3_sfm2uRKEZ2_lZH5iUf-17" value="Страница&lt;br&gt;с результатом&lt;br&gt;выполнения&lt;br&gt;запроса" style="edgeLabel;html=1;align=center;verticalAlign=middle;resizable=0;points=[];fontSize=14;" parent="3_sfm2uRKEZ2_lZH5iUf-16" vertex="1" connectable="0">
                    <mxGeometry x="0.0833" y="4" relative="1" as="geometry">
                        <mxPoint x="-5" y="-36" as="offset"/>
                    </mxGeometry>
                </mxCell>
                <mxCell id="moevYXYjzL2wdo6MrvVT-5" value="&lt;span style=&quot;font-size: 14px;&quot;&gt;Отпрвка результата выполнения &lt;br&gt;запроса для формирования&lt;br&gt;страницы-ответа&lt;/span&gt;" style="rounded=0;whiteSpace=wrap;html=1;" parent="1" vertex="1">
                    <mxGeometry x="1200" y="560" width="280" height="160" as="geometry"/>
                </mxCell>
                <mxCell id="moevYXYjzL2wdo6MrvVT-6" value="&lt;font style=&quot;font-size: 14px;&quot;&gt;A4&lt;br&gt;&lt;/font&gt;" style="rounded=0;whiteSpace=wrap;html=1;" parent="1" vertex="1">
                    <mxGeometry x="1440" y="680" width="40" height="40" as="geometry"/>
                </mxCell>
                <mxCell id="B0Z6BWa-3Lpe-tXNgBDx-1" style="edgeStyle=orthogonalEdgeStyle;html=1;fontSize=14;startArrow=classic;startFill=1;endArrow=none;endFill=0;rounded=0;" parent="1" edge="1">
                    <mxGeometry relative="1" as="geometry">
                        <mxPoint y="300" as="targetPoint"/>
                        <mxPoint x="480" y="290" as="sourcePoint"/>
                        <Array as="points">
                            <mxPoint x="480" y="290"/>
                            <mxPoint y="290"/>
                        </Array>
                    </mxGeometry>
                </mxCell>
                <mxCell id="B0Z6BWa-3Lpe-tXNgBDx-2" value="Запрос на получение списка полетов" style="edgeLabel;html=1;align=center;verticalAlign=middle;resizable=0;points=[];fontSize=14;" parent="B0Z6BWa-3Lpe-tXNgBDx-1" vertex="1" connectable="0">
                    <mxGeometry x="0.25" y="-3" relative="1" as="geometry">
                        <mxPoint x="15" y="23" as="offset"/>
                    </mxGeometry>
                </mxCell>
                <mxCell id="47D0G6h9x3_UVchZvlUF-1" style="edgeStyle=orthogonalEdgeStyle;html=1;fontSize=14;startArrow=classic;startFill=1;endArrow=none;endFill=0;exitX=0;exitY=0.375;exitDx=0;exitDy=0;exitPerimeter=0;rounded=0;" parent="1" edge="1">
                    <mxGeometry relative="1" as="geometry">
                        <mxPoint y="330" as="targetPoint"/>
                        <mxPoint x="480" y="330" as="sourcePoint"/>
                    </mxGeometry>
                </mxCell>
                <mxCell id="47D0G6h9x3_UVchZvlUF-2" value="Запрос на покупку билета" style="edgeLabel;html=1;align=center;verticalAlign=middle;resizable=0;points=[];fontSize=14;" parent="47D0G6h9x3_UVchZvlUF-1" vertex="1" connectable="0">
                    <mxGeometry x="0.25" y="-3" relative="1" as="geometry">
                        <mxPoint x="15" y="23" as="offset"/>
                    </mxGeometry>
                </mxCell>
                <mxCell id="47D0G6h9x3_UVchZvlUF-3" style="edgeStyle=orthogonalEdgeStyle;html=1;fontSize=14;startArrow=classic;startFill=1;endArrow=none;endFill=0;exitX=0;exitY=0.375;exitDx=0;exitDy=0;exitPerimeter=0;rounded=0;" parent="1" edge="1">
                    <mxGeometry relative="1" as="geometry">
                        <mxPoint y="370" as="targetPoint"/>
                        <mxPoint x="480" y="370" as="sourcePoint"/>
                    </mxGeometry>
                </mxCell>
                <mxCell id="47D0G6h9x3_UVchZvlUF-4" value="Запрос на просмотр купленных и сданных билетов&amp;nbsp;" style="edgeLabel;html=1;align=center;verticalAlign=middle;resizable=0;points=[];fontSize=14;" parent="47D0G6h9x3_UVchZvlUF-3" vertex="1" connectable="0">
                    <mxGeometry x="0.25" y="-3" relative="1" as="geometry">
                        <mxPoint x="15" y="23" as="offset"/>
                    </mxGeometry>
                </mxCell>
                <mxCell id="PzxlP7XhQFu-x5lRBQ20-1" value="" style="endArrow=classic;html=1;fontSize=14;entryX=0.289;entryY=-0.016;entryDx=0;entryDy=0;entryPerimeter=0;" parent="1" edge="1">
                    <mxGeometry width="50" height="50" relative="1" as="geometry">
                        <mxPoint x="259.5" y="-77.44000000000005" as="sourcePoint"/>
                        <mxPoint x="260.4200000000001" y="80" as="targetPoint"/>
                    </mxGeometry>
                </mxCell>
                <mxCell id="PzxlP7XhQFu-x5lRBQ20-2" value="ФЗ о&lt;br&gt;защите&lt;br&gt;персональных&lt;br&gt;данных" style="edgeLabel;html=1;align=center;verticalAlign=middle;resizable=0;points=[];fontSize=14;" parent="PzxlP7XhQFu-x5lRBQ20-1" vertex="1" connectable="0">
                    <mxGeometry x="0.1494" y="-4" relative="1" as="geometry">
                        <mxPoint x="-57" y="-20" as="offset"/>
                    </mxGeometry>
                </mxCell>
                <mxCell id="o2NMR2N71aSMhdj4likQ-1" value="" style="endArrow=classic;html=1;fontSize=14;entryX=0.289;entryY=-0.016;entryDx=0;entryDy=0;entryPerimeter=0;" parent="1" edge="1">
                    <mxGeometry width="50" height="50" relative="1" as="geometry">
                        <mxPoint x="619.5" y="82.55999999999995" as="sourcePoint"/>
                        <mxPoint x="620.4200000000001" y="240" as="targetPoint"/>
                    </mxGeometry>
                </mxCell>
                <mxCell id="o2NMR2N71aSMhdj4likQ-2" value="ФЗ о&lt;br&gt;защите&lt;br&gt;прав&lt;br&gt;потребителей" style="edgeLabel;html=1;align=center;verticalAlign=middle;resizable=0;points=[];fontSize=14;" parent="o2NMR2N71aSMhdj4likQ-1" vertex="1" connectable="0">
                    <mxGeometry x="0.1494" y="-4" relative="1" as="geometry">
                        <mxPoint x="54" y="-20" as="offset"/>
                    </mxGeometry>
                </mxCell>
                <mxCell id="3_sfm2uRKEZ2_lZH5iUf-1" value="" style="endArrow=classic;html=1;fontSize=14;" parent="1" edge="1">
                    <mxGeometry width="50" height="50" relative="1" as="geometry">
                        <mxPoint x="720" y="800" as="sourcePoint"/>
                        <mxPoint x="720" y="400" as="targetPoint"/>
                    </mxGeometry>
                </mxCell>
                <mxCell id="3_sfm2uRKEZ2_lZH5iUf-2" value="Сервера&lt;br&gt;с сервисом&lt;br&gt;координатора" style="edgeLabel;html=1;align=center;verticalAlign=middle;resizable=0;points=[];fontSize=14;" parent="3_sfm2uRKEZ2_lZH5iUf-1" vertex="1" connectable="0">
                    <mxGeometry x="0.1938" y="-1" relative="1" as="geometry">
                        <mxPoint x="-61" y="199" as="offset"/>
                    </mxGeometry>
                </mxCell>
                <mxCell id="3_sfm2uRKEZ2_lZH5iUf-5" value="" style="endArrow=classic;html=1;fontSize=14;" parent="1" edge="1">
                    <mxGeometry width="50" height="50" relative="1" as="geometry">
                        <mxPoint x="619.5" y="560" as="sourcePoint"/>
                        <mxPoint x="619.5" y="400" as="targetPoint"/>
                    </mxGeometry>
                </mxCell>
                <mxCell id="3_sfm2uRKEZ2_lZH5iUf-6" value="Очередь&lt;br&gt;Kafka" style="edgeLabel;html=1;align=center;verticalAlign=middle;resizable=0;points=[];fontSize=14;" parent="3_sfm2uRKEZ2_lZH5iUf-5" vertex="1" connectable="0">
                    <mxGeometry x="0.1938" y="-1" relative="1" as="geometry">
                        <mxPoint x="-41" y="6" as="offset"/>
                    </mxGeometry>
                </mxCell>
                <mxCell id="3_sfm2uRKEZ2_lZH5iUf-7" value="" style="endArrow=classic;html=1;fontSize=14;" parent="1" edge="1">
                    <mxGeometry width="50" height="50" relative="1" as="geometry">
                        <mxPoint x="1040" y="720" as="sourcePoint"/>
                        <mxPoint x="1040" y="560" as="targetPoint"/>
                    </mxGeometry>
                </mxCell>
                <mxCell id="3_sfm2uRKEZ2_lZH5iUf-8" value="СУБД&lt;br&gt;Postgres" style="edgeLabel;html=1;align=center;verticalAlign=middle;resizable=0;points=[];fontSize=14;" parent="3_sfm2uRKEZ2_lZH5iUf-7" vertex="1" connectable="0">
                    <mxGeometry x="0.1938" y="-1" relative="1" as="geometry">
                        <mxPoint x="40" y="6" as="offset"/>
                    </mxGeometry>
                </mxCell>
                <mxCell id="3_sfm2uRKEZ2_lZH5iUf-9" value="" style="endArrow=classic;html=1;fontSize=14;" parent="1" edge="1">
                    <mxGeometry width="50" height="50" relative="1" as="geometry">
                        <mxPoint x="920" y="720" as="sourcePoint"/>
                        <mxPoint x="920" y="560" as="targetPoint"/>
                    </mxGeometry>
                </mxCell>
                <mxCell id="3_sfm2uRKEZ2_lZH5iUf-10" value="Сервера&lt;br&gt;с сервисами&lt;br&gt;приложения" style="edgeLabel;html=1;align=center;verticalAlign=middle;resizable=0;points=[];fontSize=14;" parent="3_sfm2uRKEZ2_lZH5iUf-9" vertex="1" connectable="0">
                    <mxGeometry x="0.1938" y="-1" relative="1" as="geometry">
                        <mxPoint x="-51" y="6" as="offset"/>
                    </mxGeometry>
                </mxCell>
            </root>
        </mxGraphModel>
    </diagram>
</mxfile>